<svg xmlns="http://www.w3.org/2000/svg" version="1.1" xmlns:xlink="http://www.w3.org/1999/xlink" width="200" height="200"><svg xmlns="http://www.w3.org/2000/svg" version="1.1" xmlns:xlink="http://www.w3.org/1999/xlink" viewBox="0 0 200 200"><rect width="200" height="200" fill="url('#gradient')"></rect><defs><linearGradient id="SvgjsLinearGradient1001" gradientTransform="rotate(0 0.5 0.5)"><stop offset="0%" stop-color="#000000"></stop><stop offset="100%" stop-color="#000000"></stop></linearGradient></defs><g><g fill="#0080ff" transform="matrix(2.5710583153347732,0,0,2.5710583153347732,4.239840411573454,118.02483790008347)" stroke="#ffffff" stroke-width="0.35"><path d="M12.95-14.22L12.95 0L9.54 0L4.50-8.85L4.50 0L1.07 0L1.07-14.22L4.50-14.22L9.53-5.37L9.53-14.22L12.95-14.22ZM14.56-4.82L14.55-5.38Q14.55-6.96 15.17-8.20Q15.78-9.43 16.93-10.10Q18.09-10.76 19.64-10.76L19.64-10.76Q22.01-10.76 23.38-9.29Q24.75-7.82 24.75-5.29L24.75-5.29L24.75-5.18Q24.75-2.71 23.37-1.25Q22.00 0.20 19.66 0.20L19.66 0.20Q17.40 0.20 16.04-1.16Q14.67-2.51 14.56-4.82L14.56-4.82ZM17.85-5.77L17.84-5.18Q17.84-3.71 18.30-3.03Q18.76-2.34 19.66-2.34L19.66-2.34Q21.42-2.34 21.46-5.05L21.46-5.05L21.46-5.38Q21.46-8.22 19.64-8.22L19.64-8.22Q17.99-8.22 17.85-5.77L17.85-5.77ZM34.63-8.79L29.92-2.54L34.74-2.54L34.74 0L25.76 0L25.76-1.84L30.45-8.03L25.97-8.03L25.97-10.57L34.63-10.57L34.63-8.79ZM45.58 0L42.29 0Q42.11-0.32 41.97-0.95L41.97-0.95Q41.06 0.20 39.43 0.20L39.43 0.20Q37.94 0.20 36.89-0.71Q35.85-1.61 35.85-2.98L35.85-2.98Q35.85-4.70 37.12-5.58Q38.39-6.46 40.81-6.46L40.81-6.46L41.83-6.46L41.83-7.01Q41.83-8.47 40.57-8.47L40.57-8.47Q39.39-8.47 39.39-7.31L39.39-7.31L36.10-7.31Q36.10-8.85 37.41-9.80Q38.71-10.76 40.73-10.76Q42.75-10.76 43.93-9.78Q45.10-8.79 45.13-7.07L45.13-7.07L45.13-2.39Q45.15-0.94 45.58-0.17L45.58-0.17L45.58 0ZM40.22-2.15L40.22-2.15Q40.84-2.15 41.25-2.41Q41.65-2.68 41.83-3.01L41.83-3.01L41.83-4.70L40.87-4.70Q39.15-4.70 39.15-3.15L39.15-3.15Q39.15-2.71 39.45-2.43Q39.76-2.15 40.22-2.15ZM46.97-10.57L50.06-10.57L50.17-9.33Q51.29-10.76 53.18-10.76L53.18-10.76Q55.19-10.76 55.89-9.17L55.89-9.17Q56.96-10.76 58.99-10.76L58.99-10.76Q62.21-10.76 62.29-6.88L62.29-6.88L62.29 0L58.99 0L58.99-6.67Q58.99-7.48 58.72-7.85Q58.45-8.22 57.72-8.22L57.72-8.22Q56.75-8.22 56.27-7.35L56.27-7.35L56.28-7.22L56.28 0L52.98 0L52.98-6.65Q52.98-7.48 52.71-7.85Q52.45-8.22 51.71-8.22L51.71-8.22Q50.76-8.22 50.26-7.35L50.26-7.35L50.26 0L46.97 0L46.97-10.57ZM73.42 0L70.13 0Q69.95-0.32 69.81-0.95L69.81-0.95Q68.91 0.20 67.28 0.20L67.28 0.20Q65.78 0.20 64.74-0.71Q63.69-1.61 63.69-2.98L63.69-2.98Q63.69-4.70 64.96-5.58Q66.23-6.46 68.65-6.46L68.65-6.46L69.67-6.46L69.67-7.01Q69.67-8.47 68.41-8.47L68.41-8.47Q67.24-8.47 67.24-7.31L67.24-7.31L63.95-7.31Q63.95-8.85 65.25-9.80Q66.55-10.76 68.57-10.76Q70.60-10.76 71.77-9.78Q72.94-8.79 72.97-7.07L72.97-7.07L72.97-2.39Q72.99-0.94 73.42-0.17L73.42-0.17L73.42 0ZM68.07-2.15L68.07-2.15Q68.68-2.15 69.09-2.41Q69.49-2.68 69.67-3.01L69.67-3.01L69.67-4.70L68.71-4.70Q66.99-4.70 66.99-3.15L66.99-3.15Q66.99-2.71 67.29-2.43Q67.60-2.15 68.07-2.15Z"></path></g></g></svg><style>@media (prefers-color-scheme: light) { :root { filter: none; } }
@media (prefers-color-scheme: dark) { :root { filter: none; } }
</style></svg>